<?xml version="1.0" encoding="UTF-8"?><svg id="Layer_2" xmlns="http://www.w3.org/2000/svg" viewBox="0 0 242.67 242.67"><defs><style>.cls-1{fill:#fff;}</style></defs><g id="Layer_2-2"><path class="cls-1" d="M171.54,121.34l60.73-60.73c13.86-13.86,13.86-36.34,0-50.2-13.86-13.86-36.34-13.86-50.2,0l-60.73,60.73L60.6,10.4c-13.86-13.86-36.34-13.86-50.2,0s-13.86,36.34,0,50.2l60.73,60.73L10.4,182.07c-13.86,13.86-13.86,36.34,0,50.2,6.93,6.93,16.02,10.4,25.1,10.4s18.17-3.47,25.1-10.4l60.73-60.73,60.73,60.73c6.93,6.93,16.02,10.4,25.1,10.4s18.17-3.47,25.1-10.4c13.86-13.86,13.86-36.34,0-50.2l-60.73-60.73Z"/></g></svg>