<svg xmlns="http://www.w3.org/2000/svg" width="51.01" height="51.007" viewBox="0 0 51.01 51.007">
  <path id="Path_16" data-name="Path 16" d="M7295.538-923.446c-.01-.1-.035-.261-.049-.36-.017-.123-.032-.247-.055-.368s-.054-.224-.083-.336-.05-.209-.081-.313-.075-.217-.114-.326-.07-.2-.11-.3-.093-.2-.139-.3-.094-.205-.146-.3-.111-.191-.171-.285-.112-.194-.175-.288-.153-.209-.231-.314c-.055-.074-.107-.151-.166-.223a6.868,6.868,0,0,0-.957-.957c-.074-.061-.153-.114-.229-.171-.1-.076-.2-.154-.307-.226s-.2-.121-.3-.18-.182-.113-.278-.163-.207-.1-.312-.151-.194-.095-.294-.136-.207-.076-.312-.114-.21-.078-.319-.112-.213-.055-.32-.085-.217-.058-.328-.08-.251-.04-.377-.057c-.1-.014-.189-.032-.285-.043-.226-.022-.452-.034-.677-.034h-30.333a6.838,6.838,0,0,0-6.838,6.838h0a6.838,6.838,0,0,0,6.838,6.838h10.525a1.368,1.368,0,0,1,1.368,1.367,1.363,1.363,0,0,1-.4.967l-16.327,16.328a6.837,6.837,0,0,0,0,9.667h0a6.837,6.837,0,0,0,9.669,0L7279.554-904a1.367,1.367,0,0,1,1.934,0,1.371,1.371,0,0,1,.4.968v10.524a6.837,6.837,0,0,0,6.837,6.837h0a6.837,6.837,0,0,0,6.838-6.837h0v-30.327A5.634,5.634,0,0,0,7295.538-923.446Z" transform="translate(-7248.054 933.179)" fill="none" stroke="#fff" stroke-miterlimit="10" stroke-width="7"/>
</svg>
